<svg
xmlns="http://www.w3.org/2000/svg"
xmlnsXlink="http://www.w3.org/1999/xlink"
width="14"
height="18"
viewBox="0 0 14 18"
>
<path
d="M10.985,0.027 L3.015,0.027 C2.192,-0.091 1.362,0.186 0.774,0.776 C0.186,1.365 -0.091,2.197 0.027,3.022 L0.027,18 L7,14.006 L13.973,18 L13.973,3.022 C14.091,2.197 13.814,1.365 13.226,0.776 C12.638,0.186 11.808,-0.091 10.985,0.027 z M10.369,6.85 L9.113,8.049 C9.021,8.136 8.98,8.263 9.001,8.387 L9.288,10.03 C9.312,10.184 9.248,10.338 9.121,10.429 C8.995,10.52 8.829,10.532 8.691,10.46 L7.184,9.683 C7.071,9.626 6.937,9.626 6.824,9.683 L5.318,10.46 C5.18,10.537 5.01,10.528 4.88,10.437 C4.751,10.346 4.684,10.188 4.709,10.032 L4.996,8.39 C5.017,8.266 4.976,8.139 4.884,8.052 L3.628,6.853 C3.522,6.752 3.484,6.599 3.53,6.46 C3.576,6.321 3.698,6.22 3.843,6.202 L5.579,5.955 C5.705,5.937 5.814,5.86 5.872,5.747 L6.624,4.249 C6.696,4.11 6.84,4.022 6.997,4.022 C7.154,4.022 7.298,4.11 7.37,4.249 L8.122,5.747 C8.18,5.86 8.289,5.937 8.415,5.955 L10.151,6.202 C10.295,6.22 10.417,6.32 10.463,6.458 C10.51,6.596 10.473,6.749 10.369,6.85 z"
fill="black"
></path>
</svg>