<svg xmlns="http://www.w3.org/2000/svg" xmlns:xlink="http://www.w3.org/1999/xlink" width="16" height="18" viewBox="0, 0, 16, 18">
<path d="M16,2.7 C13.21,2.248 10.513,1.336 8.015,0 C5.504,1.329 2.797,2.241 0,2.7 L0,8 C0,14 5.037,17 8,18 C10.963,17 16,14 16,8 z M10.656,9.675 L8.652,9.675 L8.652,11.704 C8.652,12.077 8.354,12.379 7.985,12.379 C7.617,12.379 7.319,12.077 7.319,11.704 L7.319,9.675 L5.315,9.675 C4.947,9.675 4.648,9.373 4.648,9 C4.648,8.627 4.947,8.325 5.315,8.325 L7.319,8.325 L7.319,6.296 C7.319,5.923 7.617,5.621 7.985,5.621 C8.354,5.621 8.652,5.923 8.652,6.296 L8.652,8.325 L10.656,8.325 C11.024,8.325 11.323,8.627 11.323,9 C11.323,9.373 11.024,9.675 10.656,9.675 z" fill="black"></path>
</svg>