<svg xmlns="http://www.w3.org/2000/svg" xmlns:xlink="http://www.w3.org/1999/xlink" width="18" height="18" viewBox="0 0 18 18">
                                    <path d="M17.825,16.847 L14.28,13.303 C17.072,9.987 16.756,5.061 13.563,2.13 C10.37,-0.8 5.435,-0.695 2.37,2.37 C-0.695,5.435 -0.8,10.37 2.13,13.563 C5.061,16.756 9.987,17.072 13.303,14.28 L16.847,17.825 C17.121,18.069 17.538,18.057 17.797,17.797 C18.057,17.538 18.069,17.121 17.825,16.847 z M1.418,8.108 C1.417,4.413 4.412,1.417 8.107,1.416 C11.802,1.415 14.798,4.411 14.799,8.106 C14.799,11.801 11.804,14.797 8.108,14.797 C4.414,14.797 1.419,11.803 1.418,8.108 z" fill="#000"></path>
                                </svg>