<svg xmlns="http://www.w3.org/2000/svg" xmlns:xlink="http://www.w3.org/1999/xlink" width="18" height="18" viewBox="0, 0, 18, 18">
<path d="M3.138,3.558 C3.137,1.593 4.727,0 6.69,0 C8.652,-0 10.243,1.592 10.243,3.556 C10.243,5.521 8.653,7.113 6.69,7.113 C4.729,7.113 3.138,5.522 3.138,3.558 z M8.233,13.187 C8.261,11.778 8.861,10.442 9.893,9.486 C9.967,9.418 9.997,9.315 9.971,9.219 C9.946,9.119 9.863,9.044 9.76,9.03 C9.331,8.938 8.893,8.893 8.454,8.895 L4.906,8.895 C3.583,8.808 2.286,9.298 1.35,10.239 C0.414,11.179 -0.07,12.479 0.021,13.804 C-0.085,14.656 0.209,15.509 0.817,16.114 C1.425,16.72 2.279,17.009 3.13,16.897 L9.266,16.897 C9.372,16.895 9.467,16.831 9.508,16.732 C9.549,16.634 9.527,16.521 9.453,16.444 C8.665,15.544 8.232,14.387 8.236,13.191 z M17.805,17.804 C17.68,17.93 17.511,18 17.334,18 C17.158,18 16.989,17.93 16.864,17.804 L15.237,16.177 C13.686,17.242 11.58,16.949 10.378,15.501 C9.176,14.052 9.274,11.926 10.604,10.594 C11.934,9.263 14.058,9.165 15.505,10.368 C16.952,11.571 17.244,13.68 16.181,15.233 L17.805,16.866 C18.065,17.126 18.065,17.548 17.805,17.808 z M15.484,13.182 C15.484,11.911 14.455,10.881 13.186,10.881 C11.917,10.881 10.888,11.911 10.888,13.182 C10.888,14.452 11.917,15.482 13.186,15.482 C14.455,15.482 15.484,14.452 15.484,13.182 z" fill="#000"></path>
</svg> 