<svg xmlns="http://www.w3.org/2000/svg" xmlns:xlink="http://www.w3.org/1999/xlink" width="14" height="18" viewBox="0, 0, 14, 18">
                      <path d="M3.29,3.784 C3.29,1.694 4.957,0 7.013,0 C9.07,0 10.737,1.694 10.737,3.784 C10.737,5.873 9.07,7.567 7.013,7.567 C4.957,7.567 3.29,5.873 3.29,3.784 z M8.868,9.461 L5.144,9.461 C3.757,9.368 2.398,9.888 1.417,10.888 C0.436,11.888 -0.073,13.271 0.023,14.68 C-0.09,15.587 0.218,16.496 0.856,17.141 C1.493,17.786 2.389,18.094 3.282,17.975 L10.73,17.975 C12.863,17.975 13.989,16.84 13.989,14.68 C14.084,13.271 13.576,11.888 12.594,10.888 C11.613,9.888 10.254,9.368 8.868,9.461 z" fill="white"></path>
                  </svg>